<!DOCTYPE svg PUBLIC "-//W3C//DTD SVG 1.1//EN" "http://www.w3.org/Graphics/SVG/1.1/DTD/svg11.dtd">
<!-- Uploaded to: SVG Repo, www.svgrepo.com, Transformed by: SVG Repo Mixer Tools -->
<svg width="800px" height="800px" viewBox="0 0 32 32" data-name="Layer 1" id="Layer_1" xmlns="http://www.w3.org/2000/svg" fill="#000000">
<g id="SVGRepo_bgCarrier" stroke-width="0"/>
<g id="SVGRepo_tracerCarrier" stroke-linecap="round" stroke-linejoin="round"/>
<g id="SVGRepo_iconCarrier">
<defs>
<style>.cls-1{fill:#000000;}</style>
</defs>
<title/>
<path class="cls-1" d="M28,22H27V19a2,2,0,0,0-2-2H17V14h3a2,2,0,0,0,2-2V4a2,2,0,0,0-2-2H12a2,2,0,0,0-2,2v8a2,2,0,0,0,2,2h3v3H7a2,2,0,0,0-2,2v3H4a2,2,0,0,0-2,2v4a2,2,0,0,0,2,2H8a2,2,0,0,0,2-2V24a2,2,0,0,0-2-2H7V19h8v3H14a2,2,0,0,0-2,2v4a2,2,0,0,0,2,2h4a2,2,0,0,0,2-2V24a2,2,0,0,0-2-2H17V19h8v3H24a2,2,0,0,0-2,2v4a2,2,0,0,0,2,2h4a2,2,0,0,0,2-2V24A2,2,0,0,0,28,22ZM12,4h8v8H12ZM8,28H4V24H8Zm10,0H14V24h4Zm10,0H24V24h4Z"/>
</g>
</svg>