<?xml version="1.0" encoding="utf-8"?>
<!-- Generator: Adobe Illustrator 16.0.0, SVG Export Plug-In . SVG Version: 6.00 Build 0)  -->
<!DOCTYPE svg PUBLIC "-//W3C//DTD SVG 1.1//EN" "http://www.w3.org/Graphics/SVG/1.1/DTD/svg11.dtd">
<svg version="1.1" id="Butu_dia_nza" xmlns="http://www.w3.org/2000/svg" xmlns:xlink="http://www.w3.org/1999/xlink" x="0px"
	 y="0px" width="1650px" height="1650px" viewBox="0 0 1650 1650" enable-background="new 0 0 1650 1650" xml:space="preserve">
<circle fill="none" stroke="#000000" stroke-width="10" stroke-miterlimit="10" cx="824.336" cy="619" r="200"/>
<circle fill="none" stroke="#000000" stroke-width="10" stroke-miterlimit="10" cx="1002.67" cy="912.242" r="200"/>
<circle fill="none" stroke="#000000" stroke-width="10" stroke-miterlimit="10" cx="831.336" cy="1019" r="200"/>
<path fill="none" stroke="#000000" stroke-width="10" stroke-miterlimit="10" d="M1194.388,710.242c0,110.463-89.538,200-200,200
	s-200-89.537-200-200c0-110.461,89.538-200,200-200S1194.388,599.781,1194.388,710.242z"/>
<circle fill="none" stroke="#000000" stroke-width="10" stroke-miterlimit="10" cx="651.337" cy="916" r="200"/>
<circle fill="none" stroke="#000000" stroke-width="10" stroke-miterlimit="10" cx="653.336" cy="718" r="200"/>
<path fill="none" stroke="#000000" stroke-width="10" stroke-miterlimit="10" d="M1026.336,808c0,110.463-89.539,200-200,200
	c-110.463,0-200-89.537-200-200c0-110.461,89.537-200,200-200C936.797,608,1026.336,697.539,1026.336,808z"/>
<path fill="none" stroke="#000000" stroke-width="10" stroke-miterlimit="10" d="M1226.336,819c0,220.953-179.049,400-400,400
	c-220.953,0-400-179.047-400-400c0-220.951,179.047-400,400-400C1047.287,419,1226.336,598.049,1226.336,819z"/>
<path fill="none" stroke="#000000" stroke-width="10" stroke-miterlimit="10" d="M1626.336,819c0,441.906-358.098,800-800,800
	c-441.906,0-800-358.094-800-800c0-441.902,358.094-800,800-800C1268.238,19,1626.336,377.098,1626.336,819z"/>
<path fill="none" stroke="#000000" stroke-width="10" stroke-miterlimit="10" d="M1571.426,617c0,220.953-179.049,400-400,400
	c-220.953,0-400-179.047-400-400c0-220.951,179.047-400,400-400C1392.377,217,1571.426,396.049,1571.426,617z"/>
<path fill="none" stroke="#000000" stroke-width="10" stroke-miterlimit="10" d="M1586.688,992.258c0,220.953-179.049,400-400,400
	c-220.953,0-400-179.047-400-400c0-220.95,179.047-399.999,400-399.999C1407.64,592.259,1586.688,771.308,1586.688,992.258z"/>
<path fill="none" stroke="#000000" stroke-width="10" stroke-miterlimit="10" d="M895.365,1042.967c0,220.953-179.049,400-400,400
	c-220.953,0-400-179.047-400-400c0-220.95,179.047-399.999,400-399.999C716.316,642.968,895.365,822.017,895.365,1042.967z"/>
<path fill="none" stroke="#000000" stroke-width="10" stroke-miterlimit="10" d="M879.542,619c0,220.953-179.049,400-400,400
	c-220.953,0-400-179.047-400-400c0-220.951,179.047-400,400-400C700.493,219,879.542,398.049,879.542,619z"/>
<path fill="none" stroke="#000000" stroke-width="10" stroke-miterlimit="10" d="M1197.336,420c0,220.953-179.049,400-400,400
	c-220.953,0-400-179.046-400-400c0-220.951,179.047-400,400-400C1018.287,20,1197.336,199.049,1197.336,420z"/>
<path fill="none" stroke="#000000" stroke-width="10" stroke-miterlimit="10" d="M1226.336,1219c0,220.953-179.049,400-400,400
	c-220.954,0-400-179.047-400-400c0-220.951,179.047-400,400-400C1047.287,819,1226.336,998.049,1226.336,1219z"/>
<g>
</g>
<g>
</g>
<g>
</g>
<g>
</g>
<g>
</g>
<g>
</g>
<g>
</g>
<g>
</g>
<g>
</g>
<g>
</g>
<g>
</g>
<g>
</g>
<g>
</g>
<g>
</g>
<g>
</g>
</svg>
