<?xml version="1.0" encoding="iso-8859-1"?>
<!-- Uploaded to: SVG Repo, www.svgrepo.com, Generator: SVG Repo Mixer Tools -->
<svg fill="#000000" height="800px" width="800px" version="1.1" id="Layer_1" xmlns="http://www.w3.org/2000/svg" xmlns:xlink="http://www.w3.org/1999/xlink" 
	 viewBox="0 0 512 512" xml:space="preserve">
<g>
	<g>
		<g>
			<path d="M256,320c35.355,0,64-28.645,64-64s-28.645-64-64-64s-64,28.645-64,64S220.645,320,256,320z M256,234.667
				c11.791,0,21.333,9.542,21.333,21.333s-9.542,21.333-21.333,21.333s-21.333-9.542-21.333-21.333S244.209,234.667,256,234.667z"/>
			<path d="M490.667,277.333c11.782,0,21.333-9.551,21.333-21.333s-9.551-21.333-21.333-21.333h-22.392
				c-1.558-15.696-4.825-30.887-9.598-45.394l20.433-9.076c10.768-4.783,15.619-17.389,10.836-28.157s-17.389-15.619-28.157-10.836
				l-20.45,9.084c-5.91-10.34-12.662-20.135-20.159-29.297l15.84-15.84c8.331-8.331,8.331-21.839,0-30.17s-21.839-8.331-30.17,0
				l-15.84,15.84c-11.95-9.779-24.98-18.283-38.885-25.313l8.028-20.874c4.229-10.997-1.257-23.34-12.254-27.569
				c-10.997-4.229-23.34,1.257-27.569,12.254l-8.027,20.872c-11.311-3.087-22.992-5.275-34.969-6.464V21.333
				C277.333,9.551,267.782,0,256,0s-21.333,9.551-21.333,21.333v22.392c-15.699,1.558-30.893,4.826-45.403,9.601l-9.074-20.427
				c-4.783-10.768-17.389-15.619-28.157-10.836s-15.619,17.389-10.836,28.157l9.082,20.446
				c-10.337,5.909-20.129,12.659-29.289,20.155l-15.84-15.84c-8.331-8.331-21.839-8.331-30.17,0s-8.331,21.839,0,30.17l15.84,15.84
				c-9.779,11.95-18.283,24.98-25.313,38.885l-20.874-8.028c-10.997-4.229-23.34,1.257-27.569,12.254s1.257,23.34,12.254,27.569
				l20.872,8.027c-3.087,11.311-5.275,22.992-6.464,34.969H21.333C9.551,234.667,0,244.218,0,256s9.551,21.333,21.333,21.333h22.392
				c1.558,15.699,4.826,30.893,9.601,45.403l-20.427,9.074c-10.768,4.783-15.619,17.389-10.836,28.157s17.389,15.619,28.157,10.836
				l20.446-9.082c5.909,10.337,12.659,20.129,20.155,29.289l-15.836,15.836c-8.331,8.331-8.331,21.839,0,30.17s21.839,8.331,30.17,0
				l15.836-15.836c11.95,9.779,24.981,18.284,38.887,25.314l-8.03,20.88c-4.229,10.997,1.257,23.34,12.254,27.569
				s23.34-1.257,27.569-12.254l8.029-20.878c11.31,3.086,22.991,5.275,34.967,6.464v22.392c0,11.782,9.551,21.333,21.333,21.333
				s21.333-9.551,21.333-21.333v-22.392c15.696-1.558,30.887-4.825,45.394-9.598l9.076,20.433
				c4.783,10.768,17.389,15.619,28.157,10.836c10.768-4.783,15.619-17.389,10.836-28.157l-9.084-20.45
				c10.34-5.91,20.135-12.662,29.297-20.159l15.836,15.836c8.331,8.331,21.839,8.331,30.17,0s8.331-21.839,0-30.17L421.18,391.01
				c9.779-11.951,18.284-24.981,25.314-38.887l20.88,8.03c10.997,4.229,23.34-1.257,27.569-12.254
				c4.229-10.997-1.257-23.34-12.254-27.569l-20.878-8.029c3.086-11.31,5.275-22.991,6.464-34.967H490.667z M376.725,376.641
				c-0.014,0.014-0.03,0.026-0.044,0.04s-0.026,0.03-0.04,0.044c-14.507,14.497-31.613,26.394-50.557,34.936
				c-0.255,0.102-0.513,0.183-0.766,0.295c-0.202,0.09-0.387,0.201-0.584,0.296c-21.029,9.263-44.277,14.416-68.733,14.416
				c-21.19,0-41.472-3.872-60.192-10.928c-0.352-0.158-0.71-0.308-1.074-0.448c-0.404-0.155-0.811-0.294-1.218-0.423
				c-21.981-8.651-41.733-21.731-58.156-38.142c-0.014-0.014-0.026-0.03-0.04-0.045s-0.03-0.026-0.045-0.04
				c-10.084-10.091-18.901-21.446-26.215-33.796l39.582-17.138C171.471,360.792,211.027,384,256,384
				c43.874,0,82.592-22.087,105.655-55.742l39.164,18.073C393.941,357.335,385.853,367.506,376.725,376.641z M185.801,100.39
				c0.292-0.115,0.586-0.209,0.875-0.337c0.231-0.102,0.443-0.229,0.668-0.338c14.794-6.508,30.684-10.983,47.322-13.057v43.122
				C174.136,139.94,128,192.586,128,256c0,10.532,1.282,20.763,3.681,30.555l-39.586,17.139
				c-4.396-15.137-6.762-31.139-6.762-47.695c0-21.164,3.862-41.423,10.902-60.124c0.169-0.374,0.331-0.754,0.481-1.143
				c0.166-0.431,0.311-0.864,0.447-1.298C113.465,152.075,145.454,118.618,185.801,100.39z M316.124,96.235
				c0.374,0.169,0.754,0.331,1.143,0.481c0.431,0.166,0.864,0.311,1.298,0.447c41.4,16.317,74.88,48.352,93.096,88.754
				c0.102,0.255,0.183,0.513,0.295,0.766c0.09,0.202,0.201,0.387,0.296,0.584c9.263,21.029,14.416,44.277,14.416,68.733
				c0,17.987-2.79,35.32-7.947,51.6l-39.167-18.074C382.447,278.839,384,267.602,384,256c0-63.414-46.136-116.06-106.667-126.22
				V86.658C290.817,88.339,303.807,91.599,316.124,96.235z M170.667,256c0-47.119,38.214-85.333,85.333-85.333
				s85.333,38.214,85.333,85.333S303.119,341.333,256,341.333S170.667,303.119,170.667,256z"/>
		</g>
	</g>
</g>
</svg>