<!DOCTYPE svg PUBLIC "-//W3C//DTD SVG 1.1//EN" "http://www.w3.org/Graphics/SVG/1.1/DTD/svg11.dtd">
<!-- Uploaded to: SVG Repo, www.svgrepo.com, Transformed by: SVG Repo Mixer Tools -->
<svg fill="#000000" width="800px" height="800px" viewBox="0 0 24 24" id="sign-out-alt-3" data-name="Flat Line" xmlns="http://www.w3.org/2000/svg" class="icon flat-line">
<g id="SVGRepo_bgCarrier" stroke-width="0"/>
<g id="SVGRepo_tracerCarrier" stroke-linecap="round" stroke-linejoin="round"/>
<g id="SVGRepo_iconCarrier">
<path id="secondary" d="M5,18.22V5.78a1,1,0,0,1,.76-1l6-1.5a1,1,0,0,1,1.24,1V19.72a1,1,0,0,1-1.24,1l-6-1.5A1,1,0,0,1,5,18.22Z" style="fill: #2ca9bc; stroke-width: 2;"/>
<path id="primary" d="M13,19h5a1,1,0,0,0,1-1V6a1,1,0,0,0-1-1H13" style="fill: none; stroke: #000000; stroke-linecap: round; stroke-linejoin: round; stroke-width: 2;"/>
<path id="primary-2" data-name="primary" d="M5,18.22V5.78a1,1,0,0,1,.76-1l6-1.5a1,1,0,0,1,1.24,1V19.72a1,1,0,0,1-1.24,1l-6-1.5A1,1,0,0,1,5,18.22Z" style="fill: none; stroke: #000000; stroke-linecap: round; stroke-linejoin: round; stroke-width: 2;"/>
</g>
</svg>